<mxfile host="app.diagrams.net" modified="2023-10-25T07:40:25.314Z" agent="Mozilla/5.0 (Windows NT 10.0; Win64; x64) AppleWebKit/537.36 (KHTML, like Gecko) Chrome/118.0.0.0 Safari/537.36" etag="mMYVVRPa7ILyfSfYCMyI" version="21.3.2" type="google">
  <diagram name="Страница 1" id="99XB8AdM2ZHVLm-3Ezde">
    <mxGraphModel grid="1" page="1" gridSize="10" guides="1" tooltips="1" connect="1" arrows="1" fold="1" pageScale="1" pageWidth="1169" pageHeight="827" math="0" shadow="0">
      <root>
        <mxCell id="0" />
        <mxCell id="1" parent="0" />
        <mxCell id="u-ACoeTwQonfQ5HuNL3i-1" value="" style="shape=image;verticalLabelPosition=bottom;labelBackgroundColor=default;verticalAlign=top;aspect=fixed;imageAspect=0;image=data:image/png,iVBORw0KGgoAAAANSUhEUgAAAXgAAADoCAMAAADSUg9jAAAABGdBTUEAALGPC/xhBQAAAAFzUkdCAK7OHOkAAAAgY0hSTQAAeiYAAICEAAD6AAAAgOgAAHUwAADqYAAAOpgAABdwnLpRPAAAANJQTFRF////9vb25OTk6urqu7q6gX9/SEVGIx8gODQ1YV5fn52dzMvL8/PzqqiohoSFNDAxaWZnfnt8mJaXo6GhXltbMCwtcG1u3t7e+vr6rq2tRUJDhIGCtLOzLCkqkY+Q0tHSTElKjoyM0M/P7+/vv76+lZOTWldY4eDgm5ma19fX29rabGpq6Ofnenh4UE1NcnBwU1BRZWJj8PDw7e3tPTk6i4iJKiYndnN0t7a2JiMjw8LCQj8/pqWltrS11dTUvr29ycjIV1RUxcTEvbu82tnZb2xtNQe7YQAAAAFiS0dEAIgFHUgAAAAJcEhZcwAAAEgAAABIAEbJaz4AACBFSURBVHja7V0Jd6LMElWMFiqCGxFUiEvEGBUxIohLgmby///SoyGLYCNNlpfo5z1zJjMGEYumlltLJxIXXHDBBRdccMEFF1xwwQUXXHDBBRdccEEMJKnUb1/CfxBX6QwA0Nlc/rev5D8EpsByQBdL5Qpb5YG/Ltd++4r+CxBER+r1BvX2X6pZLkry1W9f1tnjJgOtdkfwv9i9bTiS7yn9376684VI3zFhvxvQULr/7Qs8TwjD4ejYr8fA9377Gs8RglrtHj+io8KEITvZBcSoaelIoSbTMH347Qs9M8z0OclhY8hc1vx3gjIqZAeaMP3taz0npOpTgexI4RrGv3215wNhzM1Ij01moPnb13s2WFhL8oNHxir52xd8JhgYZpzDc0Cqly44jqzejXW8CoSW+IKjYKRSvDeMeP7C23wDxNjWcn3xKb8DGyN2NJqFGNb4gjDE1xt5aP32RZ8DmMZN3LewcEkKfh0d4OISMDWI5YFegAUjQezk3kr57as+B+jQiPuWBncJX78ODtaER84eX/+xgaffvuozAECB6LhZFaDo0QUCL//2VZ8BHHGSHJbiQOLezEFx+NtXffroAlRJjhOur0e5t6DVbP32ZZ8BdJxzOMNTkBx4r090/+tC6kJZxgVjBcKhfrvKSwA6TvM34Nb9qey7NfZYBwC+zg5++7ucFJI8oskYxA0vp9OpujKAVtiCPd5iDi5Azv2pv614ZpNeAXC6qmkcQGbK5uzBxdUkQxW4aYaXrhIDCxDq5XC10Ydr96flRVDJiiNtyWy6omauJrp7Avq9+vKCY7AVV1zjRMpRMBP58dixXcl1ZwrAoh+jLYBytU84ULm1PHVuhkLmof7XkdzRAEYqwQJsteqkPA+lfSmYOH/XaKRxancc6M+Yg67c5+Yi+kgIbLvuiCotdOENdsihO3epi47pLbUs0Ct4pVSQXNFfFE4Erl6lfZsoef/YKp2QQ5tulEs55tSRfS+0XeffFp1Gv0j+OAS03p1FWkkwBXFY2uTDjWsWUIdIHqCzO84li47yguylneQ4io4j6KgPVKYdLvO08uJoGiU5pfNrgMi8FTN2JN9C/7Jr9iU7jkdSvEk8wnGq10YrmKNHMwP0FbwQ+OqOqYZmX3WUEliTC5sZhgpkI37vOD7KLpEYIEmS1Pwlp86S74GklbI8WNPdb3/DPwhnwTvq5jgrbwKf94zpvxbAguS0NQNAlpECY3bOe6aX1tkg6goih48zLQvg3vV/D7hO5EkdOE5Sae/fxua3v+hfw9BwXMrW8WNs4D6URb8qrQnoyHsA+s0YCFlHQ5kxOczkzdwspUvTrFmSd2fYjdKBh1xU4btgGHsFZEJTYglO7Gj591aT5JB3IoRQ157p3LFDTZtOr0u9wv0Ds7tj1QwHe5C2ZeJy8hNBHtbdclS0k1Uz+/aRIil1XThR1Mcif9Id6bWXmFVfM3WfjEHiAQfJFM+K+mS4UgZo5Xg7pa7d0HHNYwp8CV3qxRWfMjHnDdNUq/U6rSqKeVXmgBzjf78trm9Eg5ugEP+ox0evE5Us6Qnf4KxxH63/YIaIk2uLfee2ju4rJUWHzFRzX1Ud3WPmcjl2uNo79owS7SkYb4rS0fowBhxH5lqMeWK0xP067Ep1AwJFyWbGlbKsvwrTug28sz/wP15dUXu7R+eU6LIsO5Gyj+nPJtIzfSUm+4IWeM7/kiDSYGmV25bB6YZLY9I67Ui+GlWPKSwynuT5M5K8CRqRp3fDBSYaMKp6TPGnEdFw8Gqutac4FNt5ZTlxgi0zks28MQ33Tp2P5CnJzXBE4ykgxqQOfCVc9G2kGjCvL8tThdeU4fw932U7N8OYR/qL1NBd80Tx20nAkVC1qGu0Xow4cFz2/z8vgRL+sOSRmMi4SQH5Nno0o3PnUv0jgjOeBGbGynWduahvNOICCmENUrhkBWQ8I5rV7gssy4rOU8MsVJDKkSqvjNSNcjb+fMko6Tt5Gb06ZdX/nYUsrMKTIjIiCo6ej+EkJEnppcIkhJwF2UiRNtAKIap+OwUIrbpC1IbGZAJpbIYGNfQ5GTlCrUee81ZG5pZbOM4TB3rUzRdc23w2TZ876D32lxs78sA732IrXE/ut8CFDo0rOp4iiUKurRWA4iwxGwJ/G3HswPX+z4brNDML9H0iya9/H/xwoovCoVQSpflCHpcdRBHO77BX0EolBAW4KFagj+yRcS4Z3WR9Wweeu4s6Tli9O3MPLTBc7mRhGHbI0XR4sUgQjAaZfiJZjTbxHST5sykV38FzMuBIU7jSpsbbQyFs33leJlRUQ3LBIx653nWCMmhFWdiC5diEs0lplfjA09vMAIb9Xb5Zy9IxF/4N5TisliPzqeNgchDZ599DJVi/Kq1vhFBv7QtylHUiFczSq1ne/bEtnWDN2bHoxJqELMKTEd3o70heJznjSaCmTx87nVFtNOhsbnJOJLnC5ttaHkm5JWpBY/ayUATIQVZAf68i2YMpwLmYV+chtwI8uVbAiL7tKoIR0OhHL4qxbMVqR3aiAlTCoEXfrT6c00yFJvLT3PpJDbJKHdEn5YODBi30d8fzPDNRxEkGyokYmLu9cEuQIvvNs9Gu7+lAWA4STHmIWg2QWRVs1oD6QfpDRSHOxvNWajxkjvog6XgN+APgZ8hnjQ5N2+c9zIJJG6AFtImMip/ShrfSbyIoZTbm5APd1SBstOlcgPTbwvlZUGlY+d2XJWLl9bcApnm8soyFl1gf13A1SD464GX4M5oiIqjG5NA3vzM4PzOGotUPaTsB55FTshAvR75wWbUHKVrXqMG04gljA0OcH7fRoc76fYhK5v0GUUeF1IupagSQ0CWo0bMtxudDDjuWEE/6CVcvOkhT8T2QFfS91TYGOjyEncedbmO5hQllUKMOrJyRdTXD1aYwmG+Bn5YWrmdfgz21z3BHtHxswfOANNlgvwgNjyXAb8vr22DC0TxyEeX4pYyz2NM+brAN21ApydHEix91108dBStyDkEBnM107wjBI4aEYu7gqi/5noxngNDJZqW4K970yJ1W5OSoZPS9ORmY4E//jAJLinK9PLY99FtTgQ6vNh7GnQDVhjb6UYwMTIUzEnzbb1yTUqCCSTBdb7NGB0Kqebh5HcYtdhQ9ZyXaugqErSmngGbAqymGrOQgSeA8CWF1lUpcSmXgBa02RE0+q4V/6Mmh4z3m78iDRFY7pIWa0EzcMIcyXNozEalI1mckeIYLFGMohHskrIEP+Y0kxW1z1cHVb/UIQ48Y+bMRvONLBMqqwSJKNwxCXTuQ4s1JR0GrjX5kI5K1DH9Ogn8JpJWEOozHBJM4HCWP9/46wMd1tjVwSyiHEUR+B84pFVIIqpYCAElq1dEP+NW3gVXca9C8pd6KoMlyQDq58RRABbjEbhWgRVI7r4esTzFu4PoueD1C1aAa8PNRNUkwfP9P8bwBLIHktyEB6jxWrttFxpN4VIF3+awE71g2f3q7Ru0skjpFLcT9KRLET/dznxnQXTv9GDXm2zbOSvDjQyPZI2k70kKYASVSDwsi58s21SwL/biKnAD7pJ+T4HOH0yTSANEtrmqIqqlHeB5MeQWKuL+2m56ZmUBkGacWfcjpIHegGmzITqPnXGmAbVCeHY0/hduipQ8DhMvQ5RiSRnQPzype5cjfRvNA8HNYJrfAPx5/n4p/7AdHkhXddV1b14KG23H8u+6nRrfD8efTnoD87qDgq46TMcvsT+/AQcMLXsR2/SEke1y6iz2RlkAbshnRJFH1fOpWUbF2UPAqUhZUHYzSMbYwRNVUXDEeIskacwbnpW7AWqBqB5LY6C46PXg6KBw8vrzrcwhjAO6IE6HhSUgZu13XVdpY4RmGJ6/hYE20lu9JezlPAesDlVF9feVKB+B1mm5jV1kaHyjJB06hwKoAesigobXhFgSK1pBoKevn0wnl+PHB0nTz7VZ0x+7sAXjBCaWHd7sPBT8CI7vEi1VIW6glRFgYVbI+1sYZ1a1OD0bsVfZi0uV8M7ewO4v28GSYfNCqdBMW9dTmziOVdeytyJF6ibvo4puTQYYOvrII2McetgnG8RtxDufdgY6f8xhfhtqYaCyuHnfHx+hShFPBKJD7Q+D9ohKquOZKYYUNI8VgmZ1ABzmdbnPsja3JsLEb5ddwLnuBiZgIfxpw7ZgMSIdGrYd97MVgLXUuSPb+Q4OxuNY4N/iEa/ggwX38d/1FmJjUaSVoIGs0WAcxIwWAIXRqgch1xLUOzt4SO592x4uE817+PDTMsp0d9MV0M++bcX2AxrkY3UCLGOuY1mX65aVYXovi08BuTsD4Sh2eCPxZtLvOsDtJTyE4XiA5dCzhnd9KVmCFWbgtX2BVkdSO5u9vm8be1nQfDE28Y96fho2NSHqY9N3VygmnyoO9rMkA28Qh7tdSry2JNWDFFihqKZbvGo1y96sx//hIvewJwcb6hDUc4SIs0QQJzpQXb2yWivNrrtDuIx5mE4CKBR+zgJIZy/76FZ9FNkS2cK8maQN7dF7WvMbYzLiw6SRKOCU/c35d7IxSm9w1DdIt5eNo2t8QeepQP4Ml36DxL4eT6oMFW6y70q/tsM2pyoc6rwZzIp1vGMGRAziD2fRpvITliPzdw/JONaiZhSvIuIbpnZJRJnLhcGEKuvFln+QGziGIauPTFjKBHp2FFDXNwQh/Uy6ga4RPaI0Vnqw4LZTxKz5HZMBE67CUI1XOHGuYmRnSvpt/n1HjPwEsEBbW/mXYEPIySTtN5mBCCjNxJ6MeSeKVIbMn6hH9id2jCgDSyQdReXxNwA3RLse0HigsznOOQa1MjtqHilHf46EpGj6aTe6rRNPM/jn3tk1y4F9GB68uR0QrPjh+gNFBjxbdGNQ9VZQ3Pqqn6vAc+W4ECU6flu/jdxqiSATf8YVZ92thHFkTgpBUfOu1DW95lhuwyEwtagI99cmrN3hVM4Ne9HtFn1vHQRWiB1whCEUY7uWsTXj9sA3BqFAX51A2TOHdSYqkj8n0mVaU23AzeIVhpOWr+kj79Gu16oa0QfbmDLZR6OIjVyJV48uXMPC2MYsZLZSab0Ril/eelDLp2I/8GQyhrBlYrXxDIHhB30+EoL0BvZrINEGB49an5sce+1IkXfFJ7vQn8gk6ttPuiqC7YOf78k9gvKaG5gT2YeFzSxbuAyAYxE5i/fTdmpGFTWGKBC3U/iSc+D6XSSbQGEl/hXwGvTnGwEoF4rcW/jEwHHZsSi+q5dStMtjPoQyMt7BpR6IGqr48kg3SPdqgmlTwJeJ9Gf4sBN3GvSxHD4YZBHzp9xvYCa0X3kNgV1MVWOSdkwq+Rz6y+6+CwZffNqIF3wtTswzJOJ8lGPsfbAM3UsiJABEIQ4Y/jAw2ci1Fy64U6rwQjfPh/CVhGmx5ICKIEK7OwJHXsTqeQNWETx4goss1f7EAhTZbJxb84AwEv8XWPROoGj003cGT7DSdDUgu5+46RHjRncgtYP4+FKzglUjB31ha2K8MkpFtk4Dk3B1YSAVPnYPgsaRMtODHoZ3zg9CBKvsoBBOnNUfZkI6wRZUMsfvH/xgUbL2FFin4FoTtqHJLtHA3B04RNQbSgtQkH2c/jL8JBdt7pEfKTg+dSVYmqp3ZYGqmiKeiJM/AnVRx8b2gR1Ih4cu6SDTbZIM5AU3a4ZQ8/QAqYeIEKNQj6ZbwpAVnkWz23MGMflNI0xs1OP1BiDJ25WaifAYmlB4ckE1eHgEc1CKUSEfdLE+fJEuIOE/igY8a1mCH9BGjqhei0CaPEbxMmt54PoMVX8DF91Sksh2ECp60PQzDLzZJHXn7DATfw7kH+civ1QkTPPHgZcxejPljxX/7EOH0e+tFXE9Rk456mx2m4zuks+Aw42opjPoJueiYuzL8QSxxpbfjVtTbQnV8iVRPTw/ZTYEmDIuuzqBg2HGJDx9aJTIE6oSp4xbphMLJYZwlZAj7mxyv5vR7/xTMngl6tPAM/ATmlEWoLbCtwlNCeVbQ+PoTz/3hEhojK9pl0PH7FN9DpHl4xQJjDHKEeko+h5GrucOVd0tQSqfhdzzMEStf3NTyDuFtk0+/dhLpywMBpAkCyCm+stck7hkQQDrYz5EhdM/lePVMKC/T7ZTZHlsp/B0FlTokY4cE9rGND1A1ctYQt82IQra3mUlE+b+BBX6vvzn9Z54VOEieXhNwVSJ2BFZCJ48odYyQCdmaFmldMYJQfxW57gDtnPpXdtahDxzAFUHQf4N92lMGQU3NK1oYp108trPXB3R012de5abA2LZ95E39KtDmsLzxaOTZHHx9Eb+J7EFJNgk7K+g4aqAQo6bRxBBCI7JdijVQWgDSmJ1kOW81c1k5j5E+8zS1wN8wlOeAxi8samlKHCf+3zoKzWAdEUVEi2s4MmweYwatiZv7RDbtbQX6ntbmOK/dXNr28nv1y6mr9osBYE0Dfm9/5YRfhzaW6Umv5zPk/w/lbAY9wB2R4FlclNmKkRhq4woFJkTVAxqIPWepGzxMlh2KSY4el42iJ7SVYlbW4jpXVt2NmWFyaMGTrHOTgt3Pz5zzBF2JE7e+h/u/7KJ5sDGweDA0BYceJrU6MqJ2FNoD1idcEHFsineFwj997xqYTs/cd1+A216L+LV7mwXY7k8GpNJgsd6xqeUc9S5OM9WhXLkZJX+OBRWDAlgSeSaPsD14rRln+8k1rpqDIVLyyptdPhia2W+WzaIyVSbz56PP3i4DsGq8HdLkYbV3ODPZd0D57Hgu7n5A/rugb3ZFJPgRpjZVjsNd2dji1joJT6a83R1By0QfjYWwHDoLW10I3hCkQFCy3HWb5ayqf8i//mL2vjn30gm6cAyR4P2dOB6ycfbeqmFrLNMk9055Z1RvvzBfO7kb846r+azDKqy/lhk93t8U5mOlhSyGpW8r39lSbgUiqA5ZEKQckAaMEafoguFx7PuOpJxM+bjnul/hjewlFcNNf8g3UDWga5gGR6upUv+e0xnkOo0J2VcC6IEw3yYTfPHA+bkHg6Bcde9zMXNnklx0M8qHqnHcIJ85nwLN61B9y22lasxOFHedWZiGvm/zwIvI9WQzBNnE0QIN4xl/F9/TCvgnhIKvHDSZrSGWxtWwJWdZglBg/MEKsz59BXQ/IRR40CfZVVal3zW0BPxqyK53+6u102Q1x/9MJxM3U8/1JOGJRtc8WEUSty8abMB3ngORCb86YGuG8Up4J9gKnB5B8Nt7f9g6nE9frVe7XeVD3pauF4tDJau834O6wt5S6OuJnsdZZhJ5Jwg2tPKyDVWi7y1UHJWTsUkOjYAccAJNshVPHUhoS9KI/4E7LN1zQ9DJI74nb0w/x9mXXQnT1+0X0Jv5jwUuUH27PNa9lU23lKI7k/GFnU/QhDu3w//GsgjVdzKngqR93ccpBARAKPgEBHaQEiSiyGtfxJj4JklHfzz1nqlSgH+/iPsesn7GNucaiVuawwy47FTG+2yDu+rZ18/LEZXAvR6bAWO8+yK1cBOoAM0RCn4b8GE6WEGGY2Zgiwpeouka4Z3l4N+1220VSTHbfPdpUqrxhH13yt44YdbEzFaVqZmLNuU+JMevpGiDw027iwUqUGx+RZjrbwS89lxodVkI6lgnvECwa4UKNx6XDarr1NyjMB/qdz4vm1Gsp8gzxUYtW/HuLcOueDC+YmZHlj91/GiRdVssAlVFJXxuJBwTrIgfQIo0cogRcz3X52Qi9dRWLMdxuT7ghfv11Q+M0HoYqm9PSbcM+lfI/eAwPY1sm3kmYJS3cfclWwOP49Sq0dWXMuJQtBLbk5W6azBXa1wEMaJ/YsiH0DPet00hawYIQyugM5Qt2fs4vzHQiZIYe+jiqzTKEHnjnVtmfJhHeh6mqEtxL4kMBZi+9gB0vlTSpgX877ZEFoDWfbahZpH5/3tQsbpmBHoUubyDFXM1LmqqUiyLR/ogkvTPbOZyT1tt7xp1/gtjX4MRVJnQrRn6BC/GnyFTAAnnOtcjZ9imgNDnZn9oUCLVeg230mClP00ZswFGcEnYEsP6itDkuE6Noy3xm/eNo2sNaMKbvPypzaZTRW+G3YNsYDcNIkIzELs/Ek5zYH03aPyJcVVtkDCMkxg9/4Mhnf4vtT4plCgIW9BcjSxMPr0DYSdYMUzIuWx8Dr8Zf7PuBCPh6qIY4/uGB5uktZyxkdLf4p/qZ/WZHRS8RWaqn31PivmZZus1cBi/Q4lH+hxDBR6+fpKwa697Tnw/88nP6Ac7MXSylphHnznNfmYov5DFZZwq8fjlY7j6uTEfA8lLuVODtfk5S9L5pOATvmzR9FO7IaQ4zNybvvVtuz098GTR4OdRRqHE57zWg+xnkfB70/tj+PXPpT9FMA7zhZnv2yM6Q9iT9WlcmeYkenQeFiMIEIImQfoNob6/VcVnt/xUoHXgjpXj1IkcR5ZkiMsbZlS+bJp6nZN4q/hdVxCOTwve3M93E08iCOABo2xS3zdlTyb0kGbL3DAjffAQKxJmU/ha5hsjeLKvbe6L7NOb3NqWdeCVT4GQL4pEjqTyoSsqHvcjaddjuWe5xYAZZZ6zj8ZGQgnu2llVrxc/lxJJcoH4ziTU8fN9h//zuwunD7OdS1zbwqcgRwqeEaduxdiwsXv92gNxrGjvLJyWs8Pe+VHwNP2UNxDkhVVCvejboPvzgmd0uA6+toXV9zjg8vE2xEEZkfmgzu+D9154FCuT7WtPA4vXvYvMasuKz5smO2VjprLcj6D9gi+ARfZGX6vZF/bTzh8OXBrxxDP5jqN6ZBFRspuAzdwdiTyFQWEquZVMx7fkvLfiP6Kj1++dfGm5VzCMJsQ92Pu9SMoXNjJPvwWBH2h+zxCmJBdCp3WbJbeSW2ej95UdXbkJ3ZVS7lAUdXtXksuHd0EjzJX3OxWvgEfYDF+z1CPLcw/rpJSer+7UJBgEHQr1sMZmCPw3VIneYRdRZ+wV2mxl0mV6L7f8xQnG9M6ftRCJem8F1560KilBdg2Ex+pnPcHrpBtj+wRf/MKKT3Tpgz7Nznds98SsoB3UI4Kte5KLGfDV1q977Rl80T0Dz74VLS/kqWGujqScBbvIWdUd1dTBKMlb13Abae2NJMt5i1Yh3TI1sOK/IPjEswXpdvvm4wEWJmB8fVO/HoC/TV2wJ44xNVrtz800E6gUNUs4V/mvUjW8YrW66nn/uhZWbptatosf8QH64FlhOmxTznNe9I4QPVZwSEo9lPcFf/21UZCi+z241vz5cTRLjpaaUdlYq6+NfEu2LajuWYqHBessVat19y2V7iO57tM9HNYleShozo2xNPn+xtRBT+/7avb6Ncc58Pxy4hpIeb9xpvHFLUOfOGf5GK/fAdxNwtNfm45Sc6Rsvj1DArWuoqVJs9/X3C38szeyLNu1GmrJwlS3zArIKisTMaIIRPQkrpKKsLRfnrCOW1YTRN7QEkxHfFFQUWjDTWFnv/QU5V7nsQrLtTj01Opw8VM9Tba4CEpXWK8c1SITOPie4PNAqq3Vfa5mAFac6ngMRgfu9EPmK6VaI3VeKA3rihdf6tX24/+3tVh0xE40IsDbq/ufASuy3r2ab+aDE39+wZ8M+wiOi68ZkrXntlmV3ktvLH3bEL+vkYMYzgpuJhPMXWn70qqr4V08/eTccWd2EpB+151/yknufX+Wb8RAj7fxKNOcs6v3hj29OJZF+xdk7uKBBh/U2zc9N/Ot7JmgwK3jXBA/3bI/qqdINgeJjZSkD5+jn0Dh3jlUnKy8FT5Ml28/wZ18N/punKaZ6yvbHjg+Deiun04VgyVIddSqLhE7z8GxYsqPjLiuIFdkc9wmMnOAp6lnPgv2HxkS4YL6cB+FXdECOi80DOB8iWDB27WA3McdBkhNYv8/HrqIImw1Q1f9g112HtO7spQxmz9WUvA96Jd5SQXLvxtiAYXBajMGpa8Gkju5OGNkYkDYIX6wjisInnXKUw6VrVIJ5s/vapzs3BUdg08HfBDnJc6OdaJVIFFlA/9TTznVkBAzK/qWvXDrkR5aVHzy60htxm9RbnXuXyBMz9/PT4JpoO5oxmueYDY/sPiYuesjZHNNWxg4a39gT7zK+Nx3VYL8GB5LKNfC6brGBqdadFkJpHS8xCGTGjQCpGpXqMkDlBHUf2LmmrBQA31jUG98U4LwB/HgGP1Vadc/tFGpp7EEdTHmKhU5w3ejGNGJxmcrkJ5EiwM12fmJcdd98U5REZGDfEYp2zyByc55Goy1d52jzt28oSiyTVGD3lzNON+ibsedTVexAkUZU7R/VhlWRmbL3euG7PgZP/RVkhQ1cv4kTmKQeZ+H1rMj82ZpqB88r2bsfpVZFTi/QZhDfQX5K5DnIFNofCvA91Weni6YOqwexWtP5q1hZblxcDecDnObz1SEPOugBuLwu8nDCKpC5dFGzvwdXNN3Lcn+7e/96xi8skWtoXj7dddLtiQWp1237jQTQ0efp49GXa7+1928n0eFo7lijmS7mmjY1msyPOl3qxOyW/mXRbvi8GjX0OHXU3cX7GHlder0SzRfQ+WDi2GVdYPKnNsT0kMV6deQNzN6vNkGFxwH5U2BXvKIdn0z0C7D8+zO87hFlb5lqAzhJ2ji/zBemzMVqLOO1TAyK6WxVFx6bOZSBjPU77qEkrDenICbfUKoehq+6Mj6hkp5U6cGloGWvDeYuwqbBMX9DF/2X8YrGVz2jZDIuI/B1L0nTdTWpMQZNH4BCRpeO1fNN21m4c6DKLsdn/+AY1LKGWwm8cewgZbrnpug7unwMaq3Gxk88uQVQDMefmaKwH8ZK48uEFr7nZIpHjntplv8Nwd9BXFnqFwQiUcLOBQpdSVrL/W3BH6QsF1Pvgym0CcrKLkgDu6rAHXHVxTB2GMIywClvps+L3xiqsEFRFg6kdPqJuHv13NuBw2tkrLrnfwW8n8XI5QMujF9hTXdogFqP4sC2Yt+/zE43iTIeqCadzYSEg9ZValcQtafAwtouv0lTPq/Q3A7EX9sGswFoRDszb3ypSaQCy644IILLjgp/A/daus18fagRQAAACV0RVh0ZGF0ZTpjcmVhdGUAMjAxOC0xMS0yN1QyMToyNDo0MyswMjowMCquchwAAAAldEVYdGRhdGU6bW9kaWZ5ADIwMTgtMTEtMjdUMjE6MjQ6NDMrMDI6MDBb88qgAAAAAElFTkSuQmCC;" vertex="1" parent="1">
          <mxGeometry x="310" y="160" width="376" height="232" as="geometry" />
        </mxCell>
        <mxCell id="u-ACoeTwQonfQ5HuNL3i-2" value="" style="endArrow=classic;startArrow=classic;html=1;rounded=0;strokeWidth=4;fontFamily=Open Sans;fontSource=https%3A%2F%2Ffonts.googleapis.com%2Fcss%3Ffamily%3DOpen%2BSans;fontSize=14;verticalAlign=bottom;" edge="1" parent="1">
          <mxGeometry width="50" height="50" relative="1" as="geometry">
            <mxPoint x="400" y="410" as="sourcePoint" />
            <mxPoint x="700" y="360" as="targetPoint" />
          </mxGeometry>
        </mxCell>
        <mxCell id="u-ACoeTwQonfQ5HuNL3i-5" value="&lt;font style=&quot;font-size: 16px;&quot; data-font-src=&quot;https://fonts.googleapis.com/css?family=Open+Sans&quot; face=&quot;Open Sans&quot;&gt;&lt;b&gt;1000 мм&lt;/b&gt;&lt;/font&gt;" style="edgeLabel;html=1;align=center;verticalAlign=middle;resizable=0;points=[];" connectable="0" vertex="1" parent="u-ACoeTwQonfQ5HuNL3i-2">
          <mxGeometry x="0.227" relative="1" as="geometry">
            <mxPoint x="-14" y="21" as="offset" />
          </mxGeometry>
        </mxCell>
        <mxCell id="u-ACoeTwQonfQ5HuNL3i-3" value="" style="endArrow=classic;startArrow=classic;html=1;rounded=0;strokeWidth=4;" edge="1" parent="1">
          <mxGeometry width="50" height="50" relative="1" as="geometry">
            <mxPoint x="400" y="410" as="sourcePoint" />
            <mxPoint x="300" y="370" as="targetPoint" />
          </mxGeometry>
        </mxCell>
        <mxCell id="u-ACoeTwQonfQ5HuNL3i-6" value="&lt;font size=&quot;1&quot; style=&quot;&quot; data-font-src=&quot;https://fonts.googleapis.com/css?family=Open+Sans&quot; face=&quot;Open Sans&quot;&gt;&lt;b style=&quot;font-size: 16px;&quot;&gt;600 мм&lt;/b&gt;&lt;/font&gt;" style="edgeLabel;html=1;align=center;verticalAlign=middle;resizable=0;points=[];" connectable="0" vertex="1" parent="u-ACoeTwQonfQ5HuNL3i-3">
          <mxGeometry x="-0.1931" y="-1" relative="1" as="geometry">
            <mxPoint x="-30" y="17" as="offset" />
          </mxGeometry>
        </mxCell>
        <mxCell id="u-ACoeTwQonfQ5HuNL3i-4" value="" style="endArrow=classic;startArrow=classic;html=1;rounded=0;strokeWidth=4;" edge="1" parent="1">
          <mxGeometry width="50" height="50" relative="1" as="geometry">
            <mxPoint x="700" y="160" as="sourcePoint" />
            <mxPoint x="700" y="360" as="targetPoint" />
          </mxGeometry>
        </mxCell>
        <mxCell id="u-ACoeTwQonfQ5HuNL3i-7" value="&lt;font style=&quot;font-size: 16px;&quot; data-font-src=&quot;https://fonts.googleapis.com/css?family=Open+Sans&quot; face=&quot;Open Sans&quot;&gt;&lt;b&gt;600 мм&lt;/b&gt;&lt;/font&gt;" style="edgeLabel;html=1;align=center;verticalAlign=middle;resizable=0;points=[];" connectable="0" vertex="1" parent="u-ACoeTwQonfQ5HuNL3i-4">
          <mxGeometry x="-0.26" y="2" relative="1" as="geometry">
            <mxPoint x="38" y="16" as="offset" />
          </mxGeometry>
        </mxCell>
      </root>
    </mxGraphModel>
  </diagram>
</mxfile>
